HIERARCHY
ROOT Hips
{
	OFFSET 0.000000 0.000000 0.000000
	CHANNELS 6 Xposition Yposition Zposition Zrotation Yrotation Xrotation 
	JOINT LHipJoint
	{
		OFFSET 0.000000 0.000000 0.000000
		CHANNELS 3 Zrotation Yrotation Xrotation
		JOINT LeftUpLeg
		{
			OFFSET 1.363060 -1.794630 0.839290
			CHANNELS 3 Zrotation Yrotation Xrotation
			JOINT LeftLeg
			{
				OFFSET 2.448110 -6.726130 0.000000
				CHANNELS 3 Zrotation Yrotation Xrotation
				JOINT LeftFoot
				{
					OFFSET 2.562200 -7.039590 0.000000
					CHANNELS 3 Zrotation Yrotation Xrotation
					JOINT LeftToeBase
					{
						OFFSET 0.157640 -0.433110 2.322550
						CHANNELS 3 Zrotation Yrotation Xrotation
						End Site
						{
							OFFSET 0.000000 0.000000 0.000000
						}
					}
				}
			}
		}
	}
	JOINT RHipJoint
	{
		OFFSET 0.000000 0.000000 0.000000
		CHANNELS 3 Zrotation Yrotation Xrotation
		JOINT RightUpLeg
		{
			OFFSET -1.305520 -1.794630 0.839290
			CHANNELS 3 Zrotation Yrotation Xrotation
			JOINT RightLeg
			{
				OFFSET -2.542530 -6.985550 0.000000
				CHANNELS 3 Zrotation Yrotation Xrotation
				JOINT RightFoot
				{
					OFFSET -2.568260 -7.056230 0.000000
					CHANNELS 3 Zrotation Yrotation Xrotation
					JOINT RightToeBase
					{
						OFFSET -0.164730 -0.452590 2.363150
						CHANNELS 3 Zrotation Yrotation Xrotation
						End Site
						{
							OFFSET 0.000000 0.000000 0.000000
						}
					}
				}
			}
		}
	}
	JOINT LowerBack
	{
		OFFSET 0.000000 0.000000 0.000000
		CHANNELS 3 Zrotation Yrotation Xrotation
		JOINT Spine
		{
			OFFSET 0.028270 2.035590 -0.193380
			CHANNELS 3 Zrotation Yrotation Xrotation
			JOINT Spine1
			{
				OFFSET 0.056720 2.048850 -0.042750
				CHANNELS 3 Zrotation Yrotation Xrotation
				JOINT Neck
				{
					OFFSET 0.000000 0.000000 0.000000
					CHANNELS 3 Zrotation Yrotation Xrotation
					JOINT Neck1
					{
						OFFSET -0.054170 1.746240 0.172020
						CHANNELS 3 Zrotation Yrotation Xrotation
						JOINT Head
						{
							OFFSET 0.104070 1.761360 -0.123970
							CHANNELS 3 Zrotation Yrotation Xrotation
							End Site
							{
								OFFSET 0.000000 0.000000 0.000000
							}
						}
					}
				}
				JOINT LeftShoulder
				{
					OFFSET 0.000000 0.000000 0.000000
					CHANNELS 3 Zrotation Yrotation Xrotation
					JOINT LeftArm
					{
						OFFSET 3.362410 1.200890 -0.311210
						CHANNELS 3 Zrotation Yrotation Xrotation
						JOINT LeftForeArm
						{
							OFFSET 4.983000 -0.000000 -0.000000
							CHANNELS 3 Zrotation Yrotation Xrotation
							JOINT LeftHand
							{
								OFFSET 3.483560 -0.000000 -0.000000
								CHANNELS 3 Zrotation Yrotation Xrotation
								JOINT LeftFingerBase
								{
									OFFSET 0.000000 0.000000 0.000000
									CHANNELS 3 Zrotation Yrotation Xrotation
									JOINT LeftHandIndex1
									{
										OFFSET 0.715260 -0.000000 -0.000000
										CHANNELS 3 Zrotation Yrotation Xrotation
										End Site
										{
											OFFSET 0.000000 0.000000 0.000000
										}
									}
								}
								JOINT LThumb
								{
									OFFSET 0.000000 0.000000 0.000000
									CHANNELS 3 Zrotation Yrotation Xrotation
									End Site
									{
										OFFSET 0.000000 0.000000 0.000000
									}
								}
							}
						}
					}
				}
				JOINT RightShoulder
				{
					OFFSET 0.000000 0.000000 0.000000
					CHANNELS 3 Zrotation Yrotation Xrotation
					JOINT RightArm
					{
						OFFSET -3.136600 1.374050 -0.404650
						CHANNELS 3 Zrotation Yrotation Xrotation
						JOINT RightForeArm
						{
							OFFSET -5.241900 -0.000000 -0.000000
							CHANNELS 3 Zrotation Yrotation Xrotation
							JOINT RightHand
							{
								OFFSET -3.444170 -0.000000 -0.000000
								CHANNELS 3 Zrotation Yrotation Xrotation
								JOINT RightFingerBase
								{
									OFFSET 0.000000 0.000000 0.000000
									CHANNELS 3 Zrotation Yrotation Xrotation
									JOINT RightHandIndex1
									{
										OFFSET -0.622530 -0.000000 -0.000000
										CHANNELS 3 Zrotation Yrotation Xrotation
										End Site
										{
											OFFSET 0.000000 0.000000 0.000000
										}
									}
								}
								JOINT RThumb
								{
									OFFSET 0.000000 0.000000 0.000000
									CHANNELS 3 Zrotation Yrotation Xrotation
									End Site
									{
										OFFSET 0.000000 0.000000 0.000000
									}
								}
							}
						}
					}
				}
			}
		}
	}
}
MOTION
Frames: 12
Frame Time: 0.008333
1.318700 15.554950 -15.421426 -1.204275 -2.906669 35.119629 4.462975 2.283542 1.009363 -10.548822 -19.060939 -68.362383 12.147040 20.294627 67.330794 2.125199 -3.030368 -22.203058 0.074400 -1.759500 -4.841500 -5.064015 -3.345427 2.525346 10.423237 24.230167 -70.651227 -12.956645 -19.793283 69.701650 -0.563584 -4.775669 -21.180148 -0.165500 2.621000 -7.225200 2.014839 0.918913 24.520661 0.806370 1.751136 0.532139 -0.070682 1.107778 -11.963688 -6.004332 -4.894864 -24.393422 7.416018 -4.105809 -9.278146 3.669800 -1.470100 3.950500 -5.495187 2.417372 -2.469108 -87.673384 -16.158402 27.689088 35.047129 -45.684004 -18.235444 -0.534209 -2.029980 -4.402537 22.550914 14.251755 6.884000 -7.125000 0.000000 0.000000 -4.343500 47.598200 -0.278900 3.625702 -0.860325 -1.983722 83.306485 14.643789 25.594320 -39.885011 45.782393 -20.708279 1.303129 0.101381 -13.524754 -18.561045 17.058817 -6.075100 7.125000 0.000000 0.000000 5.318400 -11.878900 4.128000 
1.311383 15.474956 -15.331107 -1.429313 -2.956351 34.790936 4.474703 2.294290 1.020068 -10.519778 -18.642065 -68.155882 12.523505 20.437373 68.427475 2.250431 -3.283156 -22.848863 0.120900 -2.241700 -6.174000 -5.086191 -3.347855 2.525182 10.854863 24.455312 -70.393524 -13.298747 -19.906396 70.752608 -0.457383 -5.646668 -21.708274 -0.369300 3.903600 -10.805600 2.121294 1.005440 24.454229 0.822101 1.895499 0.539278 -0.136756 1.166616 -11.909543 -5.961049 -4.952242 -24.471764 7.555934 -4.152500 -9.634554 3.700500 -1.483700 3.866000 -5.332496 2.453196 -2.503011 -87.723241 -16.283887 28.306192 38.961012 -48.101296 -21.457525 -0.435769 -1.987186 -6.047769 22.173786 13.971582 6.611600 -7.125000 0.000000 0.000000 -4.676000 47.180400 -0.252100 3.474018 -0.884637 -1.999405 82.913221 14.223111 25.526048 -42.866347 47.472738 -23.226288 1.297135 0.181076 -14.228364 -18.492489 16.326436 -5.786000 7.125000 0.000000 0.000000 5.316100 -12.714600 4.033500 
1.301759 15.427641 -15.231966 -1.544391 -2.863354 34.461221 4.486222 2.304369 1.034647 -10.545357 -18.429940 -67.758831 12.822921 20.535098 69.287248 2.372270 -3.512582 -23.479005 0.157400 -2.555900 -7.044800 -5.107529 -3.344210 2.528052 11.323220 24.448262 -69.879266 -13.593441 -20.001400 71.649554 -0.441416 -6.152771 -22.442316 -0.502300 4.543500 -12.611100 2.245487 1.040038 24.294574 0.836401 1.979830 0.450440 -0.205340 1.197802 -12.006738 -5.858376 -5.012583 -24.267954 7.672917 -4.242401 -9.986731 3.707500 -1.529800 3.745000 -5.153797 2.494755 -2.535296 -87.577661 -16.296251 29.125441 43.791173 -50.649254 -25.525846 -0.398035 -1.950934 -6.886889 22.658028 13.870211 6.705800 -7.125000 0.000000 0.000000 -4.201600 47.098700 -0.218000 3.288533 -0.922445 -2.026918 82.453921 12.991154 25.505099 -47.210531 49.622271 -26.989430 1.303319 0.282568 -15.468137 -18.494708 15.539774 -5.503000 7.125000 0.000000 0.000000 5.255200 -13.604800 3.888300 
1.291133 15.373810 -15.127112 -1.471430 -2.887368 34.055317 4.498649 2.309580 1.045461 -10.830806 -18.243264 -67.257439 13.099202 20.616570 70.080121 2.477771 -3.703270 -24.019820 0.187300 -2.787500 -7.687700 -5.128683 -3.343145 2.525280 11.523316 24.460099 -69.299114 -13.871144 -20.080210 72.488521 -0.439227 -6.604884 -23.192411 -0.549500 4.748900 -13.193700 2.110750 1.100921 23.987027 0.831425 2.012715 0.412623 -0.151561 1.216209 -11.901364 -5.801320 -5.085291 -24.034903 7.758740 -4.341388 -10.304395 3.711700 -1.583200 3.622700 -4.975451 2.537207 -2.545743 -87.257927 -16.536426 29.816091 49.285106 -53.104120 -30.296093 -0.402440 -1.896910 -6.936479 23.358125 13.372072 6.698400 -7.125000 0.000000 0.000000 -3.434600 46.609200 -0.136600 3.093448 -0.968241 -2.041349 81.893781 11.845146 25.415210 -52.498758 51.844369 -31.698738 1.321475 0.327201 -17.435529 -17.770978 15.728043 -5.361100 7.125000 0.000000 0.000000 5.732200 -13.473500 4.260700 
1.273992 15.325493 -15.018849 -1.516922 -2.682083 33.504194 4.511088 2.314648 1.047775 -10.928004 -18.030575 -66.532750 13.344258 20.678072 70.776751 2.555796 -3.863674 -24.385200 0.215800 -2.990400 -8.251900 -5.164361 -3.334721 2.511423 12.050628 24.480830 -68.358997 -14.102206 -20.136986 73.180540 -0.461783 -6.935407 -23.934584 -0.490200 4.489400 -12.457700 2.144009 1.150512 23.673249 0.890506 2.089968 0.471661 -0.053085 1.250047 -11.560108 -5.840295 -5.139877 -24.288717 7.841995 -4.387609 -10.178190 3.735300 -1.594800 3.704700 -4.797939 2.574234 -2.531319 -86.784089 -17.282880 30.460520 55.309028 -55.388846 -35.674869 -0.383526 -1.835747 -7.383784 23.606923 12.683326 6.449900 -7.125000 0.000000 0.000000 -3.080500 45.832800 -0.063400 2.915946 -1.017400 -2.040379 81.120498 11.305157 24.901837 -58.278589 53.894665 -37.001641 1.303015 0.299970 -19.262534 -15.566456 16.105628 -4.830100 7.125000 0.000000 0.000000 7.246400 -13.234800 5.439600 
1.254845 15.291511 -14.910386 -1.433481 -2.285962 32.882614 4.524274 2.321542 1.057827 -11.046918 -18.045500 -65.647099 13.542622 20.709375 71.322254 2.648197 -4.230037 -24.615842 0.226700 -3.064900 -8.459600 -5.199679 -3.321702 2.499910 12.562399 24.341050 -67.192933 -14.271025 -20.172479 73.678768 -0.551509 -6.965411 -24.724208 -0.408400 4.102700 -11.365900 2.225946 1.134743 23.554016 0.946380 2.107334 0.424499 0.027182 1.254907 -11.540620 -5.914440 -5.184877 -24.563619 7.914648 -4.426379 -9.769218 3.760900 -1.601800 3.886500 -4.640899 2.601483 -2.502769 -86.039580 -18.197711 30.802730 61.579933 -57.426580 -41.396224 -0.339513 -1.725001 -7.348802 22.514075 11.604378 5.620700 -7.125000 0.000000 0.000000 -3.950000 44.405400 0.058100 2.751576 -1.054142 -2.035196 80.247604 10.799845 24.075752 -64.315343 55.685894 -42.598745 1.307441 0.198919 -20.184278 -13.121919 16.832609 -4.301500 7.125000 0.000000 0.000000 8.915000 -12.601300 6.840600 
1.238305 15.275071 -14.788390 -1.344618 -1.795909 32.214887 4.536295 2.328005 1.073227 -11.161865 -18.196180 -64.531523 13.677314 20.708376 71.670190 2.762388 -4.679012 -24.907594 0.223500 -3.043300 -8.399300 -5.238643 -3.304341 2.489762 13.201352 24.071309 -65.763157 -14.351024 -20.180228 73.909161 -0.653517 -6.969701 -25.540980 -0.415500 4.137700 -11.464400 2.398609 1.007147 23.418276 1.006202 2.009949 0.274910 0.098401 1.206658 -11.720279 -5.885073 -5.128231 -24.375150 7.833593 -4.404227 -9.441005 3.728800 -1.601600 3.958400 -4.484503 2.624601 -2.452335 -84.959339 -18.942469 30.883688 69.417797 -59.548711 -48.222727 -0.264008 -1.852214 -6.829285 25.069569 16.195978 8.460700 -7.125000 0.000000 0.000000 -2.478000 49.888500 -0.298800 2.584735 -1.098663 -2.019459 79.273972 9.898288 23.293351 -71.220367 57.385192 -48.968574 1.358327 0.049087 -20.237131 -11.041585 17.933809 -3.923100 7.125000 0.000000 0.000000 10.302300 -11.520000 8.173800 
1.223770 15.269357 -14.651257 -1.305240 -1.603410 31.479996 4.547704 2.326357 1.077929 -11.459762 -18.128116 -63.137627 13.740182 20.680694 71.809913 2.869214 -5.064542 -25.214125 0.204300 -2.910200 -8.028800 -5.284365 -3.288123 2.470334 13.855812 23.916899 -64.122083 -14.349675 -20.155495 73.900647 -0.648971 -7.441469 -26.219204 -0.527600 4.654600 -12.926000 2.398019 0.985579 23.060419 1.043197 1.983366 0.199929 0.210546 1.197023 -11.618805 -5.978064 -5.122161 -24.308043 7.894104 -4.406084 -8.901602 3.764500 -1.598100 4.117100 -4.348885 2.671327 -2.388180 -83.599667 -19.979956 29.940598 76.301956 -61.173224 -54.367333 -0.243798 -1.595586 -6.035103 21.893839 13.261887 6.023500 -7.125000 0.000000 0.000000 -4.943200 45.959900 -0.117400 2.423750 -1.157666 -1.984583 78.165599 9.247453 22.247286 -78.655119 58.881076 -55.691241 1.369000 -0.139030 -19.450483 -8.803230 18.589614 -3.319700 7.125000 0.000000 0.000000 11.788000 -10.897200 9.556800 
1.204623 15.282489 -14.509212 -0.986200 -1.264314 30.612621 4.559301 2.320903 1.079901 -12.084802 -18.209293 -61.416218 13.700048 20.606260 71.662403 2.909279 -5.300876 -25.218066 0.193400 -2.831900 -7.811200 -5.323652 -3.268544 2.443020 14.421225 23.423808 -62.224695 -14.280656 -20.111934 73.686440 -0.607111 -7.999532 -26.735171 -0.548700 4.745300 -13.183500 2.247576 0.904748 22.733795 1.051007 1.834386 0.143312 0.382880 1.136458 -11.503339 -6.088243 -5.184110 -24.212384 8.038393 -4.494472 -8.255245 3.818400 -1.633200 4.315800 -4.214079 2.728072 -2.331685 -81.951836 -21.088225 28.836500 84.230918 -62.614024 -60.896091 -0.247773 -1.433083 -6.023092 21.061226 12.563014 5.442500 -7.125000 0.000000 0.000000 -5.558600 44.925200 0.010300 2.257388 -1.218384 -1.940679 77.026886 8.664178 20.788984 -86.616247 60.054291 -62.553316 1.309104 -0.357209 -17.987386 -6.523914 18.903042 -2.581700 7.125000 0.000000 0.000000 13.316200 -10.615300 10.942800 
1.179964 15.327498 -14.358246 -0.468321 -0.477454 29.530204 4.567943 2.316509 1.085453 -12.871631 -18.547744 -59.190661 13.544444 20.472758 71.179217 2.918050 -5.403752 -25.142922 0.239800 -3.151600 -8.701000 -5.360628 -3.241356 2.406651 15.104585 22.470114 -59.920820 -14.141869 -20.043754 73.246910 -0.683381 -7.979765 -27.261383 -0.414200 4.131300 -11.446200 2.182328 0.606612 22.723393 1.076348 1.446895 0.038603 0.607651 0.966581 -11.680034 -6.098067 -5.205631 -24.042269 8.125261 -4.575765 -7.550215 3.833600 -1.671700 4.526800 -4.072897 2.778771 -2.312589 -80.113197 -21.921919 27.470692 92.854671 -63.507635 -67.448692 -0.271334 -1.289590 -6.056931 20.892335 12.737615 5.404200 -7.125000 0.000000 0.000000 -5.711800 44.924400 0.010700 2.084936 -1.274500 -1.907190 75.789768 7.819783 19.309849 -95.195150 60.674329 -69.492559 1.180611 -0.548406 -16.150457 -4.823678 18.900221 -1.963800 7.125000 0.000000 0.000000 14.491500 -10.634500 11.967700 
1.154602 15.393458 -14.193947 -0.303874 0.001862 28.475213 4.567960 2.311494 1.085693 -13.459713 -18.426252 -56.852506 13.335053 20.319982 70.519890 2.954373 -5.673639 -25.075480 0.271300 -3.350300 -9.255500 -5.412085 -3.217581 2.366240 16.030707 21.887387 -57.476683 -13.910142 -19.926289 72.523769 -0.680624 -8.207684 -27.560450 -0.467900 4.387100 -12.168400 2.115003 0.468705 22.715624 1.132823 1.271460 -0.094753 0.854425 0.900496 -11.953918 -6.159019 -5.195786 -24.130385 8.076334 -4.612808 -6.512816 3.816900 -1.689200 4.885600 -3.919342 2.809876 -2.342680 -78.043642 -22.462900 26.125212 101.770029 -63.519843 -73.852196 -0.294526 -1.143435 -6.245654 20.300534 13.310292 5.391900 -7.125000 0.000000 0.000000 -6.331400 45.283200 -0.044400 1.920372 -1.322741 -1.898047 74.296144 6.920468 18.047383 -103.269233 60.522713 -75.694669 1.012723 -0.680248 -14.481152 -3.628987 18.511128 -1.476200 7.125000 0.000000 0.000000 15.364700 -11.037900 12.612800 
1.132448 15.446687 -14.034961 -0.383391 -0.181119 27.959773 4.557289 2.302218 1.082331 -13.894421 -17.824285 -55.226644 13.045296 20.168433 69.656140 2.901091 -5.563196 -24.794745 0.357000 -3.838300 -10.622300 -5.459913 -3.207062 2.341561 16.720437 21.890927 -55.505068 -13.567744 -19.762763 71.463130 -0.587019 -8.554306 -27.370280 -0.534400 4.684100 -13.009800 1.782842 0.619198 22.127939 1.162071 1.367302 -0.315485 1.114522 0.976669 -12.131650 -6.182000 -5.126604 -24.286033 7.864501 -4.603888 -5.263966 3.745100 -1.694900 5.313100 -3.758621 2.814866 -2.403748 -75.705266 -22.681440 24.942380 110.252782 -62.621230 -79.839359 -0.350346 -1.018300 -6.810559 20.047956 13.803957 5.457900 -7.125000 0.000000 0.000000 -6.592400 45.618400 -0.101100 1.757485 -1.370161 -1.905876 72.647448 5.911381 17.043702 -110.817456 59.680760 -81.342935 0.845327 -0.767655 -13.403716 -2.610801 17.851818 -1.048100 7.125000 0.000000 0.000000 16.138700 -11.706700 13.070800 
